# xmcd CD database file
#
# Track frame offsets:
#	150
#	16009
#	32709
#	45335
#	62351
#	79116
#	94153
#	111761
#	126991
#	144348
#	158739
#	172112
#	188166
#	204721
#	220439
#	237180
#	256595
#
# Disc length: 3732 seconds
#
# Revision: 2
# Processed by: cddbd v1.5.2PL0 Copyright (c) Steve Scherf et al.
# Submitted via: CDex 1.79
#
DISCID=de0e9211
DTITLE=BossHoss - The Great Decade Best Of 2006-201
DYEAR=2016
DGENRE=Country
TTITLE0=Don't Gimme That
TTITLE1=Do It
TTITLE2=Rodeo Radio
TTITLE3=My Personal Song
TTITLE4=Dos Bros
TTITLE5=Bullpower
TTITLE6=Last Day (Do Or Die)
TTITLE7=Live It Up
TTITLE8=Hey Ya!
TTITLE9=Stallion Battalion
TTITLE10=I Say A Little Prayer
TTITLE11=Word Up
TTITLE12=Deals With The Devil
TTITLE13=Jolene (feat. The Common Linnets)
TTITLE14=I Like It Like That
TTITLE15=Rodeo Queen (Live Dos Bros 2016 Tour)
TTITLE16=I Keep On Dancing (Live Dos Bros 2016 Tour)
EXTD=YEAR: 2016
EXTT0=
EXTT1=
EXTT2=
EXTT3=
EXTT4=
EXTT5=
EXTT6=
EXTT7=
EXTT8=
EXTT9=
EXTT10=
EXTT11=
EXTT12=
EXTT13=
EXTT14=
EXTT15=
EXTT16=
PLAYORDER=
